# xmcd
#
# Track frame offsets:
#	150
#	22672
#	43664
#	52049
#	63996
#	84529
#	105606
#	127683
#	145946
#	157922
#	180016
#	202691
#	225540
#	246635
#	264306
#	277177
#	298971
#	313790
#
# Disc length: 4380 seconds
#
# Revision: 1
# Processed by: cddbd v1.5.2PL0 Copyright (c) Steve Scherf et al.
# Submitted via: audiograbber 1.83.01
#
DISCID=f4111a12
DTITLE=John Katzenbach - Die Grausamen
DYEAR=1900
DGENRE=
TTITLE0=601
TTITLE1=602
TTITLE2=603
TTITLE3=604
TTITLE4=605
TTITLE5=606
TTITLE6=607
TTITLE7=608
TTITLE8=609
TTITLE9=610
TTITLE10=611
TTITLE11=612
TTITLE12=613
TTITLE13=614
TTITLE14=615
TTITLE15=616
TTITLE16=617
TTITLE17=618
EXTD=
EXTT0=
EXTT1=
EXTT2=
EXTT3=
EXTT4=
EXTT5=
EXTT6=
EXTT7=
EXTT8=
EXTT9=
EXTT10=
EXTT11=
EXTT12=
EXTT13=
EXTT14=
EXTT15=
EXTT16=
EXTT17=
PLAYORDER=
